<svg id="Layer_1" data-name="Layer 1" xmlns="http://www.w3.org/2000/svg" viewBox="0 0 1865.64 164.39"><defs><style>.cls-1{fill:#fff;}</style></defs><path class="cls-1" d="M1937.93-2691.58l.11.26,0,.08c6.2,14.65,15,24.79,23.61,28.57a18.43,18.43,0,0,0,6.12,1.59,14.08,14.08,0,0,0,3.56-.15,14.82,14.82,0,0,0,1.86-.45l.13,0h0a15.82,15.82,0,0,0,1.88-.86,12.86,12.86,0,0,0,1.93-1.37,9.6,9.6,0,0,0,.76-.81,9.89,9.89,0,0,0,2.61-7c0-4.38-1.39-6.58-4.2-6.58a5.63,5.63,0,0,0-3.36,1.51c-1.07.74-1.12,2.34,0,5.07.56,1.12.2,1.8-.84,2.48a4.16,4.16,0,0,1-2.52.82q-5.88-1.64-5.88-7.42,0-6.57,5.88-9.07a12.35,12.35,0,0,1,5-.81,14.89,14.89,0,0,1,10.93,4.12c.24.24.43.5.65.74a16.68,16.68,0,0,1,4.4,9.14,42.71,42.71,0,0,1,.84,9.9q0,17.3-10.89,38.68a.16.16,0,0,0,0,.07,1,1,0,0,1-.09.13,76.5,76.5,0,0,0-4.59,9.84,2.33,2.33,0,0,0-.11.28c-.63,1.63-1.24,3.3-1.8,5l-.36,1a31.61,31.61,0,0,0-1,4.16c-3.14,16.85,3.06,32.67,14,37a20.44,20.44,0,0,0,5.91,1.09h827.11a63.38,63.38,0,0,0,9.67-.46q14.51-2.74,31.43-17.41l.59-.44h.69l.59.45q16.92,14.65,31.43,17.4a62.94,62.94,0,0,0,9.67.47h826.39a20.38,20.38,0,0,0,5.91-1.09c11-4.35,17.16-20.18,14-37a28.74,28.74,0,0,0-1-4.16l-.36-1c-.55-1.73-1.16-3.39-1.79-5a2.33,2.33,0,0,1-.11-.28,77.15,77.15,0,0,0-4.6-9.84l-.09-.13,0-.07q-10.9-21.41-10.89-38.68a42.72,42.72,0,0,1,.83-9.89,16.68,16.68,0,0,1,4.4-9.14c.23-.25.41-.51.65-.75a14.89,14.89,0,0,1,10.93-4.12,12.09,12.09,0,0,1,5,.82q5.88,2.49,5.89,9.06,0,5.79-5.89,7.42a4.18,4.18,0,0,1-2.52-.81c-1-.68-1.4-1.37-.83-2.48,1.1-2.74,1.06-4.34,0-5.07a5.6,5.6,0,0,0-3.35-1.52c-2.82,0-4.21,2.2-4.21,6.59a9.91,9.91,0,0,0,2.61,7,9.6,9.6,0,0,0,.76.81,12.45,12.45,0,0,0,1.94,1.37,14.37,14.37,0,0,0,1.88.86l0,0,.13,0a12.28,12.28,0,0,0,1.86.45,14.63,14.63,0,0,0,3.57.16,18.46,18.46,0,0,0,6.12-1.6c8.58-3.78,17.4-13.91,23.61-28.56l0-.09a2,2,0,0,0,.1-.26c5.26-12.57,7.56-26,7-37.35H1930.94C1930.38-2717.54,1932.67-2704.16,1937.93-2691.58Z" transform="translate(-1930.86 2728.93)"/></svg>